<svg width="140" height="200" viewBox="0 0 140 200" fill="none" xmlns="http://www.w3.org/2000/svg">
<path d="M35 200C54.3721 200 70 185.116 70 166.667V133.333H35C15.6279 133.333 0 148.217 0 166.667C0 185.116 15.6279 200 35 200Z" fill="#0ACF83"/>
<path d="M0 100C0 81.5504 15.6279 66.6667 35 66.6667H70V133.333H35C15.6279 133.333 0 118.45 0 100Z" fill="#A259FF"/>
<path d="M0 33.3333C0 14.8837 15.6279 0 35 0H70V66.6667H35C15.6279 66.6667 0 51.7829 0 33.3333Z" fill="#F24E1E"/>
<path d="M70 0H105C124.372 0 140 14.8837 140 33.3333C140 51.7829 124.372 66.6667 105 66.6667H70V0Z" fill="#FF7262"/>
<path d="M140 100C140 118.45 124.372 133.333 105 133.333C85.6279 133.333 70 118.45 70 100C70 81.5504 85.6279 66.6667 105 66.6667C124.372 66.6667 140 81.5504 140 100Z" fill="#1ABCFE"/>
</svg>
