<svg width="160" height="161" viewBox="0 0 160 161" fill="none" xmlns="http://www.w3.org/2000/svg">
<path d="M156.982 73.3736L87.1237 3.51725C83.1033 -0.505751 76.5783 -0.505751 72.5516 3.51725L58.0466 18.0249L76.4478 36.4263C80.7255 34.9826 85.6281 35.951 89.0363 39.3593C92.4623 42.7891 93.423 47.7335 91.9439 52.0253L109.678 69.7612C113.969 68.2821 118.921 69.2377 122.345 72.6701C127.137 77.4574 127.137 85.2182 122.345 90.0081C121.207 91.1472 119.855 92.0508 118.367 92.6673C116.879 93.2838 115.285 93.6011 113.674 93.6011C112.064 93.6011 110.469 93.2838 108.981 92.6673C107.493 92.0508 106.141 91.1472 105.003 90.0081C103.293 88.2961 102.127 86.1167 101.652 83.7439C101.177 81.3711 101.415 78.911 102.335 76.6728L85.7967 60.1346L85.7941 103.661C86.9941 104.252 88.0897 105.035 89.0376 105.978C93.8261 110.766 93.8261 118.524 89.0376 123.321C84.2478 128.109 76.4846 128.109 71.6999 123.321C66.9113 118.525 66.9113 110.767 71.6999 105.978C72.8482 104.831 74.2124 103.922 75.7139 103.304V59.3742C74.2107 58.7591 72.8459 57.8493 71.6999 56.6985C68.0723 53.0735 67.1991 47.75 69.0597 43.2935L50.9184 25.152L3.0181 73.0503C1.08561 74.9835 0 77.605 0 80.3384C0 83.0718 1.08561 85.6933 3.0181 87.6264L72.8773 157.483C76.9003 161.506 83.4227 161.506 87.452 157.483L156.983 87.9509C158.915 86.0173 160 83.3955 160 80.662C160 77.9285 158.914 75.3069 156.982 73.3736Z" fill="#F34F29"/>
</svg>
