<svg width="86" height="85" viewBox="0 0 86 85" fill="none" xmlns="http://www.w3.org/2000/svg">
<g clip-path="url(#clip0_94_276)">
<path d="M43 7.65332C54.4891 7.65332 55.8496 7.70312 60.368 7.90234C64.5672 8.08496 66.8348 8.78223 68.3465 9.36328C70.3453 10.127 71.7898 11.0566 73.2848 12.5342C74.7965 14.0283 75.7203 15.4395 76.493 17.415C77.0809 18.9092 77.7863 21.167 77.9711 25.3008C78.1727 29.7832 78.2231 31.1279 78.2231 42.4668C78.2231 53.8223 78.1727 55.167 77.9711 59.6328C77.7863 63.7832 77.0809 66.0244 76.493 67.5186C75.7203 69.4941 74.7797 70.9219 73.2848 72.3994C71.773 73.8936 70.3453 74.8066 68.3465 75.5703C66.8348 76.1514 64.5504 76.8486 60.368 77.0313C55.8328 77.2305 54.4723 77.2803 43 77.2803C31.5109 77.2803 30.1504 77.2305 25.632 77.0313C21.4328 76.8486 19.1652 76.1514 17.6535 75.5703C15.6547 74.8066 14.2102 73.877 12.7152 72.3994C11.2035 70.9053 10.2797 69.4941 9.50703 67.5186C8.91914 66.0244 8.21367 63.7666 8.02891 59.6328C7.82734 55.1504 7.77695 53.8057 7.77695 42.4668C7.77695 31.1113 7.82734 29.7666 8.02891 25.3008C8.21367 21.1504 8.91914 18.9092 9.50703 17.415C10.2797 15.4395 11.2203 14.0117 12.7152 12.5342C14.227 11.04 15.6547 10.127 17.6535 9.36328C19.1652 8.78223 21.4496 8.08496 25.632 7.90234C30.1504 7.70312 31.5109 7.65332 43 7.65332ZM43 0C31.3262 0 29.8648 0.0498047 25.2793 0.249023C20.7105 0.448242 17.5695 1.17871 14.8484 2.22461C12.0098 3.32031 9.60781 4.76465 7.22266 7.13867C4.8207 9.49609 3.35938 11.8701 2.25078 14.6592C1.19258 17.3652 0.453516 20.4531 0.251953 24.9687C0.0503906 29.5176 0 30.9619 0 42.5C0 54.0381 0.0503906 55.4824 0.251953 60.0146C0.453516 64.5303 1.19258 67.6348 2.25078 70.3242C3.35938 73.1299 4.8207 75.5039 7.22266 77.8613C9.60781 80.2188 12.0098 81.6797 14.8316 82.7588C17.5695 83.8047 20.6937 84.5352 25.2625 84.7344C29.848 84.9336 31.3094 84.9834 42.9832 84.9834C54.657 84.9834 56.1184 84.9336 60.7039 84.7344C65.2727 84.5352 68.4137 83.8047 71.1348 82.7588C73.9566 81.6797 76.3586 80.2188 78.7437 77.8613C81.1289 75.5039 82.607 73.1299 83.6988 70.3408C84.757 67.6348 85.4961 64.5469 85.6977 60.0313C85.8992 55.499 85.9496 54.0547 85.9496 42.5166C85.9496 30.9785 85.8992 29.5342 85.6977 25.002C85.4961 20.4863 84.757 17.3818 83.6988 14.6924C82.6406 11.8701 81.1793 9.49609 78.7773 7.13867C76.3922 4.78125 73.9902 3.32031 71.1684 2.24121C68.4305 1.19531 65.3063 0.464844 60.7375 0.265625C56.1352 0.0498047 54.6738 0 43 0Z" fill="white"/>
<path d="M43 20.6689C30.8055 20.6689 20.9121 30.4473 20.9121 42.5C20.9121 54.5527 30.8055 64.3311 43 64.3311C55.1945 64.3311 65.0879 54.5527 65.0879 42.5C65.0879 30.4473 55.1945 20.6689 43 20.6689ZM43 56.6611C35.0887 56.6611 28.6723 50.3193 28.6723 42.5C28.6723 34.6807 35.0887 28.3389 43 28.3389C50.9113 28.3389 57.3277 34.6807 57.3277 42.5C57.3277 50.3193 50.9113 56.6611 43 56.6611Z" fill="white"/>
<path d="M71.118 19.8055C71.118 22.6278 68.8 24.9022 65.9613 24.9022C63.1059 24.9022 60.8047 22.6112 60.8047 19.8055C60.8047 16.9832 63.1227 14.7088 65.9613 14.7088C68.8 14.7088 71.118 16.9999 71.118 19.8055Z" fill="white"/>
</g>
<defs>
<clipPath id="clip0_94_276">
<rect width="86" height="85" fill="white"/>
</clipPath>
</defs>
</svg>
