<svg width="86" height="85" viewBox="0 0 86 85" fill="none" xmlns="http://www.w3.org/2000/svg">
<g clip-path="url(#clip0_94_296)">
<path d="M79.634 0H6.34922C2.83867 0 0 2.73926 0 6.12598V78.8574C0 82.2441 2.83867 85 6.34922 85H79.634C83.1445 85 86 82.2441 86 78.874V6.12598C86 2.73926 83.1445 0 79.634 0ZM25.5145 72.4326H12.7488V31.8584H25.5145V72.4326ZM19.1316 26.3301C15.0332 26.3301 11.7242 23.0596 11.7242 19.0254C11.7242 14.9912 15.0332 11.7207 19.1316 11.7207C23.2133 11.7207 26.5223 14.9912 26.5223 19.0254C26.5223 23.043 23.2133 26.3301 19.1316 26.3301ZM73.2848 72.4326H60.5359V52.71C60.5359 48.0117 60.4519 41.9521 53.9012 41.9521C47.2664 41.9521 46.2586 47.082 46.2586 52.3779V72.4326H33.5266V31.8584H45.7547V37.4033H45.9227C47.6191 34.2158 51.7848 30.8457 57.9828 30.8457C70.8996 30.8457 73.2848 39.2461 73.2848 50.1699V72.4326V72.4326Z" fill="white"/>
</g>
<defs>
<clipPath id="clip0_94_296">
<rect width="86" height="85" fill="white"/>
</clipPath>
</defs>
</svg>
