<svg width="320" height="266" viewBox="0 0 320 266" fill="none" xmlns="http://www.w3.org/2000/svg">
<path d="M70.5882 75.8108C77.6877 75.8108 83.443 70.0613 83.443 62.9691C83.443 55.8769 77.6877 50.1275 70.5882 50.1275C63.4888 50.1275 57.7335 55.8769 57.7335 62.9691C57.7335 70.0613 63.4888 75.8108 70.5882 75.8108Z" fill="#61DAFB"/>
<path d="M119.414 41.7917C116.933 40.8905 114.339 39.9893 111.633 39.2008C112.31 36.4973 112.874 33.7938 113.325 31.2029C115.693 16.3337 113.099 5.85759 105.882 1.80234C103.74 0.563229 101.372 0 98.6657 0C90.7724 0 80.7367 5.85759 70.5882 15.6578C60.4398 5.85759 50.4041 0 42.5108 0C39.8046 0 37.4366 0.563229 35.2941 1.80234C28.0774 5.97024 25.4839 16.4463 27.8519 31.2029C28.303 33.7938 28.8668 36.4973 29.5433 39.2008C26.8371 39.9893 24.2436 40.7778 21.7628 41.7917C7.66773 47.1987 0 54.6333 0 62.9691C0 71.3049 7.7805 78.7395 21.7628 84.1466C24.2436 85.0477 26.8371 85.9489 29.5433 86.7374C28.8668 89.4409 28.303 92.1444 27.8519 94.7353C25.4839 109.605 28.0774 120.081 35.2941 124.136C37.4366 125.375 39.8046 125.938 42.5108 125.938C50.5168 125.938 60.5525 120.081 70.5882 110.28C80.7367 120.081 90.7724 125.938 98.6657 125.938C101.372 125.938 103.74 125.375 105.882 124.136C113.099 119.968 115.693 109.492 113.325 94.7353C112.874 92.1444 112.31 89.4409 111.633 86.7374C114.339 85.9489 116.933 85.1604 119.414 84.1466C133.509 78.7395 141.176 71.3049 141.176 62.9691C141.176 54.6333 133.509 47.1987 119.414 41.7917ZM102.725 7.43463C107.348 10.1381 108.927 18.4739 107.01 30.3018C106.672 32.6673 106.108 35.1455 105.431 37.7364C99.5678 36.3847 93.3659 35.4835 86.8258 34.9203C82.9919 29.5132 79.0453 24.6695 75.0987 20.2763C83.443 12.0531 91.9 6.42082 98.7784 6.42082C100.244 6.42082 101.597 6.75876 102.725 7.43463ZM90.0959 74.2337C88.0662 77.8384 85.6982 81.443 83.2175 85.0477C79.0453 85.3857 74.8732 85.4983 70.5882 85.4983C66.1906 85.4983 62.0184 85.3857 57.959 85.0477C55.4783 81.443 53.2231 77.8384 51.1934 74.2337C49.0509 70.5164 47.0212 66.6864 45.2171 62.9691C47.0212 59.2518 49.0509 55.4218 51.1934 51.7045C53.2231 48.0998 55.5911 44.4952 58.0718 40.8905C62.244 40.5526 66.4161 40.4399 70.701 40.4399C75.0987 40.4399 79.2708 40.5526 83.3302 40.8905C85.811 44.4952 88.0662 48.0998 90.0959 51.7045C92.2383 55.4218 94.268 59.2518 96.0722 62.9691C94.1553 66.6864 92.2383 70.4037 90.0959 74.2337ZM99.455 70.5164C101.146 74.459 102.5 78.289 103.74 82.1189C99.9061 83.0201 95.8467 83.696 91.5618 84.2592C92.9149 82.1189 94.3808 79.866 95.6211 77.5004C96.9743 75.1349 98.2146 72.7693 99.455 70.5164ZM70.5882 101.043C67.882 98.1147 65.2885 94.9606 62.8078 91.6938C65.4013 91.8065 67.9948 91.9191 70.5882 91.9191C73.1817 91.9191 75.7752 91.8065 78.3687 91.6938C75.888 94.9606 73.2945 98.1147 70.5882 101.043ZM49.6147 84.1466C45.3298 83.5833 41.2704 82.9074 37.4366 82.0063C38.6769 78.289 40.0301 74.3464 41.7215 70.4037C42.9619 72.6567 44.2022 75.0222 45.5554 77.2751C46.9085 79.7534 48.2616 81.8936 49.6147 84.1466ZM41.7215 55.4218C40.0301 51.4792 38.6769 47.6493 37.4366 43.8193C41.2704 42.9181 45.3298 42.2422 49.6147 41.679C48.2616 43.8193 46.7957 46.0722 45.5554 48.4378C44.2022 50.8033 42.9619 53.1689 41.7215 55.4218ZM70.5882 24.8948C73.2945 27.8236 75.888 30.9776 78.3687 34.2444C75.7752 34.1317 73.1817 34.0191 70.5882 34.0191C67.9948 34.0191 65.4013 34.1317 62.8078 34.2444C65.2885 30.9776 67.882 27.8236 70.5882 24.8948ZM95.6211 48.5504L91.5618 41.7917C95.8467 42.3549 99.9061 43.0308 103.74 43.9319C102.5 47.6493 101.146 51.5919 99.455 55.5345C98.2146 53.1689 96.9743 50.8033 95.6211 48.5504ZM34.1665 30.3018C32.2496 18.4739 33.8282 10.1381 38.4514 7.43463C39.579 6.75876 40.9322 6.42082 42.3981 6.42082C49.1637 6.42082 57.6208 11.9405 66.0778 20.2763C62.1312 24.5568 58.1846 29.5132 54.3507 34.9203C47.8106 35.4835 41.6087 36.4973 35.7452 37.7364C35.0686 35.1455 34.6176 32.6673 34.1665 30.3018ZM6.3146 62.9691C6.3146 57.6747 12.742 52.0424 24.018 47.8745C26.2733 46.9734 28.754 46.1849 31.2347 45.509C33.0389 51.1413 35.2941 57.1115 38.0004 63.0817C35.2941 69.052 32.9261 74.9096 31.2347 80.5419C15.6737 76.036 6.3146 69.2773 6.3146 62.9691ZM38.4514 118.504C33.8282 115.8 32.2496 107.464 34.1665 95.6364C34.5048 93.2709 35.0686 90.7927 35.7452 88.2018C41.6087 89.5536 47.8106 90.4547 54.3507 91.018C58.1846 96.425 62.1312 101.269 66.0778 105.662C57.7335 113.885 49.2765 119.517 42.3981 119.517C40.9322 119.517 39.579 119.179 38.4514 118.504ZM107.01 95.6364C108.927 107.464 107.348 115.8 102.725 118.504C101.597 119.179 100.244 119.517 98.7784 119.517C92.0128 119.517 83.5557 113.998 75.0987 105.662C79.0453 101.381 82.9919 96.425 86.8258 91.018C93.3659 90.4547 99.5678 89.4409 105.431 88.2018C106.108 90.7927 106.559 93.2709 107.01 95.6364ZM117.158 78.0637C114.903 78.9648 112.423 79.7534 109.942 80.4292C108.138 74.7969 105.882 68.8267 103.176 62.8565C105.882 56.8862 108.25 51.0286 109.942 45.3963C125.503 49.9022 134.862 56.6609 134.862 62.9691C134.862 68.2635 128.322 73.8958 117.158 78.0637Z" fill="#61DAFB"/>
<path d="M203.909 156.725C192.225 139.987 169.144 135.026 152.459 145.666L123.152 164.36C119.186 166.849 115.783 170.138 113.161 174.017C110.538 177.896 108.755 182.28 107.923 186.889C107.553 188.957 107.364 191.066 107.361 193.182C107.378 198.918 108.783 204.566 111.456 209.642C108.951 213.452 107.241 217.73 106.43 222.217C105.599 226.909 105.715 231.771 106.769 236.397C107.825 241.054 109.798 245.453 112.573 249.337C124.258 266.074 147.392 271.035 164.023 260.396L193.302 241.701C197.265 239.21 200.663 235.916 203.279 232.033C205.894 228.15 207.669 223.762 208.489 219.152C208.865 217.079 209.054 214.976 209.051 212.869C209.044 207.143 207.656 201.504 205.006 196.428C207.511 192.622 209.222 188.348 210.035 183.864C210.398 181.788 210.583 179.687 210.588 177.581C210.59 170.109 208.256 162.823 203.911 156.744L203.909 156.725Z" fill="#FF3E00"/>
<path d="M149.596 250.91C147.671 251.406 145.707 251.657 143.739 251.658C139.979 251.657 136.276 250.745 132.946 248.999C129.616 247.253 126.759 244.726 124.619 241.635C122.007 237.977 120.604 233.594 120.606 229.1C120.607 227.832 120.717 226.569 120.933 225.328C121.109 224.395 121.346 223.48 121.642 222.591L122.193 220.911L123.689 222.048C127.16 224.596 131.037 226.537 135.157 227.788L136.243 228.116L136.141 229.202V229.766C136.139 231.125 136.561 232.45 137.349 233.558C137.986 234.5 138.843 235.273 139.846 235.809C140.873 236.351 141.982 236.631 143.104 236.632C143.696 236.635 144.287 236.559 144.865 236.407C145.493 236.243 146.099 235.977 146.668 235.618L175.944 216.831C176.822 216.274 177.545 215.503 178.044 214.591C178.544 213.679 178.804 212.655 178.801 211.615C178.793 210.256 178.359 208.933 177.562 207.833C176.915 206.902 176.054 206.142 175.05 205.617C174.023 205.087 172.915 204.815 171.797 204.82C171.205 204.818 170.614 204.894 170.036 205.046C169.411 205.207 168.808 205.472 168.244 205.834L157.082 212.968C155.204 214.151 153.203 215.03 151.132 215.581C146.522 216.782 141.653 216.537 137.186 214.88C132.719 213.223 128.868 210.234 126.155 206.317C123.545 202.658 122.142 198.276 122.141 193.782C122.143 192.517 122.253 191.256 122.469 190.01C122.97 187.241 124.04 184.605 125.613 182.271C127.185 179.937 129.225 177.955 131.604 176.451L160.912 157.767C162.751 156.596 164.757 155.712 166.861 155.143C168.775 154.653 170.743 154.405 172.719 154.405C176.486 154.397 180.199 155.303 183.54 157.045C186.88 158.788 189.748 161.314 191.898 164.408C194.492 168.076 195.877 172.461 195.861 176.953C195.859 178.224 195.749 179.491 195.533 180.735C195.357 181.668 195.121 182.583 194.826 183.471L194.274 185.152L192.778 184.056C189.311 181.503 185.432 179.561 181.31 178.316L180.224 177.978L180.326 176.891V176.328C180.326 174.966 179.904 173.638 179.118 172.526C178.473 171.595 177.613 170.836 176.609 170.312C175.584 169.781 174.479 169.509 173.363 169.512C172.776 169.525 172.193 169.614 171.622 169.779C170.993 169.937 170.387 170.202 169.821 170.568L140.512 189.252C139.817 189.686 139.202 190.285 138.706 191.013C138.242 191.693 137.918 192.494 137.758 193.352C137.686 193.708 137.641 194.072 137.625 194.438C137.624 195.794 138.046 197.116 138.833 198.22C139.477 199.15 140.337 199.91 141.34 200.434C142.366 200.964 143.471 201.236 144.587 201.233C145.18 201.235 145.77 201.159 146.348 201.006C146.977 200.847 147.584 200.582 148.152 200.218L159.334 193.044C161.212 191.858 163.212 190.979 165.284 190.431C167.209 189.935 169.172 189.684 171.141 189.683C174.901 189.682 178.605 190.593 181.937 192.337C185.268 194.08 188.128 196.606 190.271 199.696C191.942 202.038 193.128 204.691 193.759 207.498C194.391 210.305 194.454 213.21 193.947 216.042C193.449 218.813 192.38 221.45 190.807 223.784C189.234 226.119 187.193 228.1 184.812 229.601L155.555 248.286C153.675 249.475 151.67 250.357 149.596 250.91Z" fill="white"/>
<path d="M291.765 1.17688H320L249.412 125.938L178.823 1.17688H232.823L249.412 30.107L265.647 1.17688H291.765Z" fill="#41B883"/>
<path d="M206.706 1.17688L249.412 76.3952L291.765 1.17688H265.647L249.412 30.107L232.823 1.17688H206.706Z" fill="#35495E"/>
</svg>
