<svg width="86" height="85" viewBox="0 0 86 85" fill="none" xmlns="http://www.w3.org/2000/svg">
<path d="M72.8026 14.7177C67.3213 12.2319 61.4434 10.4005 55.2976 9.35151C55.1857 9.33126 55.0739 9.38185 55.0163 9.48304C54.2603 10.8119 53.423 12.5456 52.8366 13.9082C46.2265 12.9301 39.6502 12.9301 33.1757 13.9082C32.5892 12.5153 31.7214 10.8119 30.9621 9.48304C30.9044 9.38523 30.7926 9.33464 30.6807 9.35151C24.5383 10.3971 18.6604 12.2286 13.1757 14.7177C13.1282 14.738 13.0875 14.7717 13.0605 14.8155C1.91132 31.2785 -1.14291 47.3368 0.355395 63.196C0.362175 63.2736 0.406242 63.3478 0.46726 63.395C7.82317 68.7342 14.9486 71.9755 21.9417 74.124C22.0537 74.1578 22.1723 74.1173 22.2435 74.0262C23.8977 71.7934 25.3723 69.4392 26.6366 66.9634C26.7112 66.8184 26.64 66.6464 26.4875 66.5891C24.1486 65.7121 21.9214 64.6429 19.779 63.4287C19.6096 63.3309 19.596 63.0914 19.7519 62.9767C20.2027 62.6428 20.6537 62.2954 21.0842 61.9446C21.1621 61.8805 21.2706 61.867 21.3622 61.9075C35.4366 68.2586 50.6739 68.2586 64.5822 61.9075C64.6738 61.8637 64.7823 61.8772 64.8636 61.9412C65.2942 62.292 65.7451 62.6428 66.1993 62.9767C66.3552 63.0914 66.345 63.3309 66.1755 63.4287C64.0332 64.6665 61.806 65.7121 59.4637 66.5857C59.3112 66.643 59.2433 66.8184 59.318 66.9634C60.6094 69.4357 62.084 71.79 63.7077 74.0228C63.7755 74.1173 63.8975 74.1578 64.0094 74.124C71.0365 71.9755 78.1619 68.7342 85.5178 63.395C85.5822 63.3478 85.6229 63.2769 85.6297 63.1993C87.4229 44.8644 82.6263 28.9378 72.9144 14.8189C72.8907 14.7717 72.8501 14.738 72.8026 14.7177ZM28.7384 53.5394C24.501 53.5394 21.0096 49.6944 21.0096 44.9723C21.0096 40.2503 24.4333 36.4053 28.7384 36.4053C33.0773 36.4053 36.535 40.2841 36.4671 44.9723C36.4671 49.6944 33.0434 53.5394 28.7384 53.5394ZM57.3145 53.5394C53.0773 53.5394 49.5858 49.6944 49.5858 44.9723C49.5858 40.2503 53.0094 36.4053 57.3145 36.4053C61.6535 36.4053 65.1111 40.2841 65.0434 44.9723C65.0434 49.6944 61.6535 53.5394 57.3145 53.5394Z" fill="white"/>
</svg>
