<svg width="160" height="160" viewBox="0 0 160 160" fill="none" xmlns="http://www.w3.org/2000/svg">
<mask id="mask0_71_97" style="mask-type:alpha" maskUnits="userSpaceOnUse" x="0" y="0" width="160" height="160">
<path fill-rule="evenodd" clip-rule="evenodd" d="M113.459 159.316C114.732 159.815 116.094 160.045 117.459 159.993C118.825 159.94 120.165 159.605 121.396 159.01L154.338 143.076C156.034 142.255 157.465 140.97 158.467 139.367C159.469 137.765 160 135.911 160 134.018V25.9807C160 24.088 159.469 22.2335 158.467 20.6309C157.466 19.0282 156.034 17.7424 154.338 16.9214L121.396 0.990259C119.535 0.0899865 117.441 -0.206426 115.405 0.142045C113.369 0.490516 111.49 1.46664 110.03 2.93531L46.9678 60.7668L19.5004 39.8072C18.2611 38.862 16.7319 38.3825 15.1778 38.4518C13.6237 38.5211 12.1428 39.1348 10.9917 40.1867L2.18169 48.2421C1.49513 48.8697 0.946462 49.6346 0.570789 50.4876C0.195116 51.3407 0.000707859 52.2631 1.92944e-06 53.196C-0.000704 54.1289 0.192307 55.0517 0.566689 55.9053C0.941071 56.7589 1.48858 57.5246 2.17419 58.1533L25.9954 79.9987L2.17544 101.845C1.4902 102.474 0.943022 103.24 0.568873 104.093C0.194724 104.947 0.00183783 105.869 0.00254368 106.802C0.00324954 107.735 0.197532 108.657 0.572972 109.51C0.948413 110.363 1.49675 111.128 2.18294 111.755L10.9929 119.811C12.1439 120.863 13.6248 121.477 15.1789 121.546C16.7329 121.616 18.2623 121.137 19.5016 120.192L46.9691 99.2332L110.031 157.063C111.007 158.044 112.174 158.811 113.459 159.316ZM120.024 43.4887L72.1752 79.9987L120.025 116.51L120.024 43.4887Z" fill="white"/>
</mask>
<g mask="url(#mask0_71_97)">
<path d="M154.339 16.9478L121.372 0.990305C119.51 0.0888796 117.415 -0.20816 115.378 0.140336C113.34 0.488832 111.461 1.46561 110.001 2.93536L2.07853 101.845C1.39278 102.474 0.845132 103.24 0.470652 104.093C0.0961711 104.947 -0.0968955 105.869 -0.0961895 106.802C-0.0954835 107.735 0.0989795 108.657 0.474752 109.51C0.850524 110.363 1.39933 111.128 2.08603 111.755L10.901 119.811C12.0523 120.864 13.5342 121.479 15.0894 121.548C16.6446 121.618 18.1749 121.138 19.4147 120.192L149.378 21.0854C153.738 17.7608 160.001 20.8869 160.001 26.3879V26.0034C160.001 24.1112 159.469 22.2574 158.468 20.6552C157.466 19.053 156.035 17.7688 154.339 16.9478Z" fill="#0065A9"/>
<g filter="url(#filter0_d_71_97)">
<path d="M154.339 143.051L121.371 159.006C119.51 159.908 117.415 160.205 115.378 159.857C113.34 159.509 111.461 158.533 110 157.063L2.07804 58.1521C1.39229 57.5236 0.844644 56.7581 0.470163 55.9045C0.0956829 55.051 -0.0973837 54.1283 -0.0966778 53.1955C-0.0959718 52.2626 0.0984912 51.3402 0.474263 50.4872C0.850035 49.6343 1.39884 48.8696 2.08554 48.2421L10.9005 40.1867C12.0518 39.1335 13.5337 38.5187 15.0889 38.4491C16.6441 38.3796 18.1744 38.8597 19.4142 39.806L149.378 138.911C153.738 142.237 160 139.111 160 133.61V133.994C160 135.886 159.469 137.74 158.467 139.342C157.466 140.945 156.035 142.23 154.339 143.051Z" fill="#007ACC"/>
</g>
<g filter="url(#filter1_d_71_97)">
<path d="M121.372 159.01C119.51 159.909 117.415 160.205 115.378 159.857C113.341 159.508 111.462 158.532 110 157.063C113.69 160.773 120 158.145 120 152.899V7.09677C120 1.8509 113.69 -0.776437 110 2.934C111.462 1.46539 113.341 0.489318 115.378 0.140663C117.415 -0.207992 119.51 0.0879813 121.372 0.987683L154.334 16.9226C156.031 17.743 157.463 19.0286 158.466 20.6313C159.468 22.234 160 24.0887 160 25.9819V134.018C160 135.911 159.468 137.766 158.466 139.369C157.463 140.971 156.031 142.257 154.334 143.077L121.372 159.01Z" fill="#1F9CF0"/>
</g>
<path opacity="0.25" fill-rule="evenodd" clip-rule="evenodd" d="M113.363 159.316C114.636 159.815 115.997 160.045 117.363 159.992C118.728 159.94 120.068 159.605 121.299 159.01L154.24 143.076C155.937 142.255 157.368 140.969 158.37 139.367C159.372 137.764 159.903 135.91 159.903 134.017V25.9808C159.903 24.0881 159.372 22.2337 158.37 20.631C157.368 19.0283 155.937 17.7425 154.24 16.9215L121.299 0.99038C119.438 0.0901086 117.344 -0.206304 115.308 0.142167C113.271 0.490638 111.393 1.46676 109.933 2.93544L46.8705 60.7669L19.4031 39.8086C18.1639 38.8634 16.6346 38.3838 15.0805 38.4531C13.5265 38.5225 12.0455 39.1362 10.8944 40.188L2.08441 48.2434C1.39801 48.8712 0.849501 49.6361 0.473938 50.4891C0.0983757 51.3421 -0.0959719 52.2646 -0.0966778 53.1974C-0.0973836 54.1302 0.0955677 55.0529 0.469839 55.9065C0.84411 56.7601 1.39147 57.5258 2.07691 58.1547L25.8981 79.9989L2.07816 101.844C1.39254 102.473 0.845035 103.239 0.470654 104.092C0.0962717 104.946 -0.0967397 105.869 -0.0960338 106.802C-0.0953278 107.734 0.0990799 108.657 0.474753 109.51C0.850426 110.363 1.39909 111.128 2.08566 111.756L10.8956 119.811C12.0466 120.863 13.5275 121.477 15.0816 121.546C16.6357 121.616 18.165 121.137 19.4044 120.192L46.873 99.232L109.935 157.064C110.911 158.044 112.078 158.811 113.363 159.316ZM119.928 43.4876L72.078 79.9989L119.928 116.509V43.4876Z" fill="url(#paint0_linear_71_97)"/>
</g>
<defs>
<filter id="filter0_d_71_97" x="-1.13843" y="37.4008" width="162.18" height="123.64" filterUnits="userSpaceOnUse" color-interpolation-filters="sRGB">
<feFlood flood-opacity="0" result="BackgroundImageFix"/>
<feColorMatrix in="SourceAlpha" type="matrix" values="0 0 0 0 0 0 0 0 0 0 0 0 0 0 0 0 0 0 127 0" result="hardAlpha"/>
<feOffset/>
<feGaussianBlur stdDeviation="0.520875"/>
<feColorMatrix type="matrix" values="0 0 0 0 0 0 0 0 0 0 0 0 0 0 0 0 0 0 0.25 0"/>
<feBlend mode="overlay" in2="BackgroundImageFix" result="effect1_dropShadow_71_97"/>
<feBlend mode="normal" in="SourceGraphic" in2="effect1_dropShadow_71_97" result="shape"/>
</filter>
<filter id="filter1_d_71_97" x="108.958" y="-1.04334" width="52.0835" height="162.084" filterUnits="userSpaceOnUse" color-interpolation-filters="sRGB">
<feFlood flood-opacity="0" result="BackgroundImageFix"/>
<feColorMatrix in="SourceAlpha" type="matrix" values="0 0 0 0 0 0 0 0 0 0 0 0 0 0 0 0 0 0 127 0" result="hardAlpha"/>
<feOffset/>
<feGaussianBlur stdDeviation="0.520875"/>
<feColorMatrix type="matrix" values="0 0 0 0 0 0 0 0 0 0 0 0 0 0 0 0 0 0 0.25 0"/>
<feBlend mode="overlay" in2="BackgroundImageFix" result="effect1_dropShadow_71_97"/>
<feBlend mode="normal" in="SourceGraphic" in2="effect1_dropShadow_71_97" result="shape"/>
</filter>
<linearGradient id="paint0_linear_71_97" x1="79.9029" y1="-0.00225138" x2="79.9029" y2="160" gradientUnits="userSpaceOnUse">
<stop stop-color="white"/>
<stop offset="1" stop-color="white" stop-opacity="0"/>
</linearGradient>
</defs>
</svg>
